<svg xmlns="http://www.w3.org/2000/svg" viewBox="0 0 281 273"><defs><style>.cls-1{opacity:0.5;}.cls-2,.cls-3,.cls-4,.cls-5{fill:#231f20;}.cls-3{stroke:#ad1015;}.cls-10,.cls-11,.cls-12,.cls-13,.cls-14,.cls-15,.cls-16,.cls-17,.cls-18,.cls-19,.cls-20,.cls-21,.cls-22,.cls-23,.cls-24,.cls-25,.cls-26,.cls-27,.cls-28,.cls-29,.cls-3,.cls-30,.cls-31,.cls-32,.cls-33,.cls-34,.cls-35,.cls-36,.cls-37,.cls-38,.cls-39,.cls-4,.cls-40,.cls-41,.cls-42,.cls-43,.cls-44,.cls-45,.cls-46,.cls-47,.cls-48,.cls-49,.cls-5,.cls-50,.cls-51,.cls-52,.cls-53,.cls-54,.cls-55,.cls-56,.cls-57,.cls-58,.cls-59,.cls-6,.cls-60,.cls-61,.cls-62,.cls-63,.cls-64,.cls-65,.cls-66,.cls-67,.cls-68,.cls-69,.cls-70,.cls-71,.cls-72,.cls-73,.cls-74,.cls-75,.cls-76,.cls-77,.cls-78,.cls-79,.cls-8,.cls-80,.cls-9{stroke-miterlimit:10;}.cls-3,.cls-4,.cls-5,.cls-6{stroke-width:2px;}.cls-4{stroke:#7d0000;}.cls-5{stroke:#5e0000;}.cls-6{fill:none;}.cls-10,.cls-11,.cls-12,.cls-13,.cls-14,.cls-15,.cls-16,.cls-17,.cls-18,.cls-19,.cls-20,.cls-21,.cls-22,.cls-23,.cls-24,.cls-25,.cls-26,.cls-27,.cls-28,.cls-29,.cls-30,.cls-31,.cls-32,.cls-33,.cls-34,.cls-35,.cls-36,.cls-37,.cls-38,.cls-39,.cls-40,.cls-41,.cls-42,.cls-43,.cls-44,.cls-45,.cls-46,.cls-47,.cls-48,.cls-49,.cls-50,.cls-51,.cls-52,.cls-53,.cls-54,.cls-55,.cls-56,.cls-57,.cls-58,.cls-59,.cls-6,.cls-60,.cls-61,.cls-62,.cls-63,.cls-64,.cls-65,.cls-66,.cls-67,.cls-68,.cls-69,.cls-70,.cls-71,.cls-72,.cls-73,.cls-74,.cls-75,.cls-76,.cls-77,.cls-78,.cls-79,.cls-8,.cls-80,.cls-9{stroke:#470000;}.cls-7{opacity:0.78;}.cls-8{fill:#e1e2e1;}.cls-9{fill:#dfdfde;}.cls-10{fill:#ddd;}.cls-11{fill:#eeedee;}.cls-12{fill:#f0efef;}.cls-13{fill:#ededee;}.cls-14{fill:#f1f0f0;}.cls-15{fill:#fff;}.cls-16{fill:#fdfeff;}.cls-17{fill:#f9f9fa;}.cls-18{fill:#fbfcfc;}.cls-19{fill:#cccccb;}.cls-20{fill:#6d6d6d;}.cls-21{fill:#c9c9c9;}.cls-22{fill:#c7c7c7;}.cls-23{fill:#6c6c6c;}.cls-24{fill:#6b6b6b;}.cls-25{fill:#c8c7c7;}.cls-26{fill:#797879;}.cls-27{fill:#686868;}.cls-28{fill:#c3c3c3;}.cls-29{fill:#c1c1c0;}.cls-30{fill:#bfbebe;}.cls-31{fill:#c2c1c1;}.cls-32{fill:#7d7d7d;}.cls-33{fill:#bab9b9;}.cls-34{fill:#bdbcbc;}.cls-35{fill:#5e5e5e;}.cls-36{fill:#7f7f7f;}.cls-37{fill:#898888;}.cls-38{fill:#878686;}.cls-39{fill:#818181;}.cls-40{fill:#717171;}.cls-41{fill:#c4c3c3;}.cls-42{fill:#606060;}.cls-43{fill:#555;}.cls-44{fill:#515251;}.cls-45{fill:#4c4c4c;}.cls-46{fill:#797979;}.cls-47{fill:#7b7b7b;}.cls-48{fill:#cacaca;}.cls-49{fill:#c5c5c5;}.cls-50{fill:#cbcaca;}.cls-51{fill:#656565;}.cls-52{fill:#666;}.cls-53{fill:#656666;}.cls-54{fill:#c9c9c8;}.cls-55{fill:#c8c8c8;}.cls-56{fill:#5c5c5c;}.cls-57{fill:#8b8b8b;}.cls-58{fill:#8c8c8c;}.cls-59{fill:#7e7e7e;}.cls-60{fill:#5d5d5d;}.cls-61{fill:#b5b5b5;}.cls-62{fill:#888;}.cls-63{fill:#a1a0a1;}.cls-64{fill:#919090;}.cls-65{fill:#5a5a5a;}.cls-66{fill:#aeadae;}.cls-67{fill:#858585;}.cls-68{fill:#676767;}.cls-69{fill:#cbcccb;}.cls-70{fill:#616261;}.cls-71{fill:#5f605f;}.cls-72{fill:#464646;}.cls-73{fill:#404040;}.cls-74{fill:#444;}.cls-75{fill:#565656;}.cls-76{fill:#4b4b4b;}.cls-77{fill:#3a3a3a;}.cls-78{fill:#3b3b3b;}.cls-79{fill:#424242;}.cls-80{fill:#4d4d4d;}</style></defs><g id="Layer_2" data-name="Layer 2"><g id="Layer_1-2" data-name="Layer 1"><g class="cls-1"><polygon class="cls-2" points="280 136 141 136 141 68.5 141 1 210.5 1 280 1 280 136"/><line class="cls-3" x1="280" y1="1" x2="141" y2="136"/><line class="cls-4" x1="210.5" y1="1" x2="141" y2="68.5"/><line class="cls-5" x1="280" y1="68.5" x2="210.5" y2="136"/><rect class="cls-6" x="141" y="1" width="139" height="135"/><g class="cls-7"><path class="cls-8" d="M153.68,37.23c.77,6.85,7.23,7,11.51,9.56,1.46.89,3.28,1.18,5.48,1.93-.78-5.12-1.44-10-2.26-14.79-1.51-8.9-.82-17.8,0-26.68.21-2.37,2.08-3.44,4.26-1.49,1.45,1.3,3.16,2.53,3.36,4.76-.28.11-.58.34-.84.3-1.89-.3-2.09-3.79-4.08-2.9-2.38,1.07-1.25,3.86-1.33,5.91-.44,11.34-.41,22.74,5.37,32.93,3.58,6.31,8.39,11.79,15.38,14.91A25.58,25.58,0,0,1,202.58,73.1c1.15,2.1,2.09,4-1.34,5.51-3.24,1.43-3.71,4.4-.78,6.76,4.8,3.87,6.71,9.19,8.35,14.77.36,1.22.72,2.84,2.39,2.77s1.93-1.66,2.28-2.91c1.44-5.07,2.64-10,7.51-13.45a5,5,0,0,0,.07-7.85c-3.1-2.28-2-4.33-.86-6.31a25.16,25.16,0,0,1,11-10.52c9.85-4.6,16-12.21,19.06-22.75,2.53-8.79,2.39-17.68,2.33-26.62a6.33,6.33,0,0,0-1.72-4.88l-4.25,3.63h0c-.43-2.32,1.18-3.65,2.49-5.14.63-.71,1-1.89,2.28-1.38a3,3,0,0,1,2.2,2.42A87.18,87.18,0,0,1,254,31.4c-.76,5.87-.45,11.88-2.25,17.85,2.91-2.47,6.61-2.8,9.84-4.33,5.65-2.69,8.55-6.38,8-12.7-.18-2,0-4,0-6,2-1.4,3.48-.16,5,1a25.85,25.85,0,0,1,.24,19.22c-2,5.35-5.82,8.67-11.72,8.73-10.16.1-16.82,6.45-17.43,16.63-.13,2.22-.11,4.41,2.09,5.74s3.75.07,5.39-1.17c5.47-4.12,10.3-8.83,13.46-15a11.35,11.35,0,0,1,2.4-3.11c.75-.7,1.63-1.31,2.67-.75a2,2,0,0,1,.7,2.64c-4.29,9.69-6.26,20.62-15.09,27.92A20.3,20.3,0,0,1,251,92c-6.77,2.36-11.9,6.93-16.24,12.41-1,1.24-1.71,2.08-3.13,1.42s-.71-1.92-.41-3c.78-2.85,1.22-5.7,3.26-8.18,3.32-4.06,1.81-7.3-3.54-8.36C224.53,85,217,91,216.58,97.64a5.51,5.51,0,0,0,2.22,4.71c1.75,1.57,2.55-.29,3.71-1s2.64-1.73,4.08-.45a3.05,3.05,0,0,1,.52,4.11,116.06,116.06,0,0,0-10.39,21.24c-.89,2.29-3.45,5-6.13,4.37a7.79,7.79,0,0,1-6.22-6.25c-1.59-6.93-5.58-12.9-9.1-19-.83-1.45-2.27-3-.41-4.9,2.16-2.24,3.58.19,4.57,1,2.12,1.71,3.34,1.23,5.49,0,3-1.74,1.06-3.57.55-5.08-2.45-7.24-7.22-10.72-13.33-10.09-5.39.56-6.91,3.45-4.45,8.11,1.31,2.49,2.29,5.14,3.4,7.73.48,1.11.91,2.29-.62,2.93-1.22.51-2,.63-3.16-.87a34.78,34.78,0,0,0-14.18-11c-6.59-2.74-13.17-6.52-14.43-14.9l.59-.39c1.88-.21,2.56,1.28,3.39,2.48a25.67,25.67,0,0,0,11.47,9.3,37.49,37.49,0,0,1,11.55,7.57c-5.36-7.78-3.12-13.23,5.79-14.11,5.4-.53,4.64-5.45,6.73-8.26,1.56-2.1-.85-3.91-2.43-5.33-3.71-3.31-8-5.66-13-8,3.29,5.08,6.44,9.43,12.44,10.52,1.27.23,2.92.55,2.78,2.28-.16,2-2,2.14-3.45,2-5.54-.66-10.1-3.1-13.14-8-1.69-2.69-2.61-5.73-3.9-8.62a28.45,28.45,0,0,1,2.37,13.79c-.12,1.71.18,3.88-2.52,4.11-1.16-.54-1.44-1.33-.68-2.41C178,67,173,61.73,168.27,56.36c-1.67-1.89-4-1.14-6.13-1.15-11.9-.06-19.2-10-15.62-21.52.77-2.48.58-5.25,2.19-7.47,3.15-1.7,4.46-.65,4.52,2.82.05,2.73-.56,5.51.46,8.19Z"/><path class="cls-9" d="M232.62,43.24a43.1,43.1,0,0,1-11.24,13c-5.71,4.29-7.32,11.13-8.72,17.8-.35,1.67.49,3.79-2.8,4.58-.25-4.76-.6-9.28-2.87-13.62-1.55-3-2.71-6.21-5.36-8.09-5.2-3.69-9.39-8.08-11.94-14.5-1.86,2.54-.4,4.28-.18,6.08.17,1.4,1,3.44-.59,4.08-1.84.76-2.83-1.33-3.74-2.58-4.07-5.63-4.32-12.24-3.29-18.59.76-4.68.09-8.44-2.57-12.1a1.88,1.88,0,0,1,.26-2.79c4.08,4.79,6.53,9.72,4.33,16.19-.49,1.43-1.33,4.93,1.1,4.73,1.39-.11,5.92.87,5.73-3.83-.15-3.69,2.39-3.76,5.21-2.66,1.4.55,1.94,2.39,3.69,2.33,2.92,2,7.11,2.43,8.19,6.69.24,1.81,0,3.66.5,5.43.39,1.32,1,2.59,2.59,2.6a3,3,0,0,0,2.82-2.43c1-3.12.32-6.19-.34-9.31-1.17-5.48-2.72-11-1.66-16.68.81-1.57,1.73-2,2.86-.28A92.46,92.46,0,0,0,217.34,38c2.83-2.83,5.34-5.38,8.57-6.8,2.33-1,5.27-2.71,5.75,2,1.61,1.52,0,4.3,2.53,5.79.93.54-.29,3-1.57,4.27Z"/><path class="cls-8" d="M176.65,75.13a2.14,2.14,0,0,0,1.06,2.05c-1.49,4.11-4.68,5.43-8.79,3.06-4.74-2.72-9.26-5.85-11.94-10.51.85,2.53,4.28,4.87,1.71,8.44h0c-4.34-4.69-6.55-10.43-7.91-16.51-.28-1.23-.91-3.48.95-3.88s2.91,1.5,3.59,2.94c2.5,5.32,6.33,9.57,10.51,13.54,4.61,4.38,6.3,4.48,10.82.88Z"/><path class="cls-10" d="M237.63,30.22c-.26-7.86,3.21-13.95,9-19h0c-.06,1.75-1.13,3-1.92,4.48-2.8,5.14-5.76,9.91-4.32,16.58,1.41,6.49.44,13.21-4.54,18.58-.89,1-1.44,2.6-3,2-2-.76-.28-2.26-.19-3.37a44.5,44.5,0,0,1,1-5.32c.62-1.87-1.08-5.46,3.26-4.55.67.14.72.1.58-.38C236.63,36.25,238.28,33.25,237.63,30.22Z"/><path class="cls-11" d="M237.63,30.22c2,4.4.58,8.86.91,13.94-2.48-1.15-1.52-3-2.33-4.13-2.55.4-.81,3.38-2.57,4.2l-1-1c1.66-3.54-1.94-6.58-1-10.06C234.09,33.05,237.11,34.15,237.63,30.22Z"/><path class="cls-12" d="M153.68,37.23c-1.88-2.16-1-4.77-.91-7.13.08-3.12-1.16-4.23-4.08-3.87a5.75,5.75,0,0,1,.95-3.8c1.4-2,2.88-5.27,5.23-4.36s.12,3.95-.4,5.78c-1.26,4.46-.49,8.93-.8,13.38Z"/><path class="cls-11" d="M274.53,27.25l-5-1c-.87-1.77-1.8-3.53-2.6-5.33-.47-1.07-.84-2.45.36-3.11s2.3.3,3,1.21c1.85,2.51,3.77,5,4.25,8.24Z"/><path class="cls-9" d="M206.61,32.21a41.74,41.74,0,0,1,2-14c1.11-.2,1.55.55,1.95,1.37,1.14,5.27-.07,10.35-1.34,15.42-1.05,1.21-2.48,2.18-3.72.82s-.29-2.72,1.12-3.62Z"/><path class="cls-13" d="M209.64,19.25c-.34-.34-.68-.69-1-1,0-.82,0-1.63,0-2.45,0-1.57.35-3,2.18-3.32s2.44,1.2,3.16,2.51a8.25,8.25,0,0,1,.63,4.3c-.66-.12-1.32-1.12-2,0a2.15,2.15,0,0,1-3,0Z"/><path class="cls-14" d="M206.61,32.21c-.26,1-1.48,2-.59,3,.39.42,1.69,0,2.58,0,.52,1.89.56,3.55-1.9,4-2-2.4-5.34-3.26-7.06-6C201.93,32.65,204.2,31.94,206.61,32.21Z"/><path class="cls-15" d="M158.69,78.17c.9-4.65-4-7.52-3.68-13.79a36.75,36.75,0,0,0,13.35,14.23c3.7,2.29,6.76,2.52,9.35-1.43,2.27-5.59.8-11-1-16.3a7.87,7.87,0,0,1-.4-5.93c2.62,5.33,4.51,10,7.13,14.26s9.43,6.43,14.9,4.65c-10-1.06-14.49-7-17.4-14.65,5.41,3,11.23,5.16,15.9,9.41,2.66,2.43,4,4.62,1.82,8-.72,1.09-1.75,2.34-1.73,3.5.09,4.29-2.61,4.08-5.6,4.11-4.81,0-8.13,3.31-7.65,7.16.24,1.94,1.78,3.15,2.59,4.76.5,1,1.59,1.73.83,4-5.56-6.57-13.44-8.78-20-13.15-3.52-2.34-4.61-6.8-8.38-8.77Z"/><path class="cls-16" d="M266.24,67.91c-3.66,7.94-5.57,17-14.37,21.24-6.36,3-13,5.46-17.32,12.36A8.31,8.31,0,0,1,236,95.59c4.33-7.41,2.28-11.12-6.55-11.38-2.72-.08-3.51-.91-4-3.65-.61-3.67-.24-4.92,4-5.69,8-1.45,12-7.59,14.05-15,.68-2.41,1.05-4.78,3.95-6.28-.21,5-3.1,8.94-3.44,13.55a46.14,46.14,0,0,0-.35,6.42c.41,6.12,4.68,8.14,10,5.19,5-2.74,8.67-6.8,12.58-10.87Z"/><path class="cls-15" d="M197,103.1c3.24.43,5.44,3.62,8.38.73.87-.85,1.56,1.29,2.41,2,1.25,1,3.18,3.33,4,2,3.32-5.64,10-1.43,13.61-5.63,1,1.61,0,2.47-.64,3.3A61,61,0,0,0,216,123.12c-.7,2.16-1.69,5.17-4.85,4.81-2.71-.31-4.47-2.67-4.94-5.08-1.27-6.53-5.06-11.73-8.27-17.26a17.83,17.83,0,0,1-.88-2.48Z"/><path class="cls-17" d="M241.1,59c-2.53,9.19-8.53,14.3-18.84,15.17C225.62,65.1,234.45,63.3,241.1,59Z"/><path class="cls-18" d="M192.49,32.79c5.59,1.29,9.34,3.63,10,9.31.61,5.48,4.34,8.81,8.63,11.39,1.44.86,7.93-7.43,8.64-11.24.75-4,2.46-7.1,6.57-8.45.88-.29,1.56-1.67,2.58-1,1.29.88,1,2.59.63,3.67-2.11,6.32-4,12.77-9.63,17.18-3.26,2.55-6.24,5.48-7.29,9.75-.22.88-.55,1.6-1.57,1.55s-1.27-.92-1.48-1.73c-1.33-5.22-5.25-8.37-9-11.76-5.4-4.84-7.33-11.31-8-18.7Z"/><path class="cls-16" d="M206.7,39.23c.63-1.35,1.26-2.7,1.9-4-.32-5.35,1.68-10.56,1-15.93h3a56,56,0,0,0,2.51,18,18.24,18.24,0,0,1,.32,8.37A4.8,4.8,0,0,1,210.77,50c-2.59,0-3.55-2.34-4-4.37S206.7,41.38,206.7,39.23Z"/></g><polygon class="cls-2" points="140 136 1 136 1 68.5 1 1 70.5 1 140 1 140 136"/><line class="cls-3" x1="140" y1="1" x2="1" y2="136"/><line class="cls-4" x1="70.5" y1="1" x2="1" y2="68.5"/><line class="cls-5" x1="140" y1="68.5" x2="70.5" y2="136"/><rect class="cls-6" x="1" y="1" width="139" height="135"/><path class="cls-19" d="M122.58,46.26c-1.2,2.35-3.48,3.77-5.22,5.66a24.34,24.34,0,0,1-11,9.49q-9.69,8-19.4,16c-1.5,1.23-3.1,2.33-4.65,3.5-1.08.9-2.65,1.11-3.16,2.83-.67,2.27-2.64,2.15-4.49,1.4S72,83,72.82,81.27c1.56-3.57.72-7.28,1-10.93.15-2.44-.89-4-3.49-4.43a9,9,0,0,1-4.42-2.13c-1.62-1.44-3.25-2.21-5.36-1-1.1.63-2.37.82-3.18-.2-.94-1.19-.26-2.55.53-3.56,2.89-3.72,6.26-7,9.36-10.59,4.52-5.13,9-10.42,11.59-16.8,1.41-4.18,4.72-6.66,8.48-8.72a17.09,17.09,0,0,1,7-5.82c1.49-.34,2.36.61,3.48,1.33,2.83,1.81,5.54,2.84,8.91.27,3.73-2.84,7.73-2,11.52,1.55,5.36,5,6.1,7.4,3.18,12-2.07,3.27-2.11,6.33.44,9.2A4,4,0,0,1,122.58,46.26Z"/><path class="cls-20" d="M105.83,111.49c-.46-4.67-.3-8.93,3.21-13a10,10,0,0,0,1.06-11.41c-1.38-2.58-3.77-4.35-7-2.64-2.79,1.47-4.74,3.48-2.33,7.14,1.54-1.7,1.26-5.24,4.54-4.17s2.45,3.94,2.11,6.22c-.69,4.71-6,8.15-11.21,7.51s-7.37-3.38-6.9-9.21a15.24,15.24,0,0,1,15.42-13.66,11.17,11.17,0,0,1,9.92,5.38C119.91,91.69,113.85,109.33,105.83,111.49Z"/><path class="cls-21" d="M80.19,31.41c0,.64.23,1.52-.11,1.89C74.73,39,73.2,47.14,66.45,52.06c-3.41,2.5-5.75,6.36-9,10,4-1.29,15.09,1.22,16.58,4.06,2.42,4.6,1.4,9.68.57,14.57-.19,1.14-1.79,2.27.32,3.11,1.44.58,2.7,1.21,3.1-1.3.35-2.15,2.64-1.38,4.2-1.58-2.16,1.86-1.61,4.12-1.13,6.44.69,3.26-.33,4.76-4.14,3.88-2.14-.49-4.37-1.6-6.68-.45-1.45-2.2-1.57-4.83-2.6-7.18.09-1.82,1.66-2.68,2.73-3.86,3.2-3.51,3.1-9.31-.19-12.16a9.25,9.25,0,0,0-12.56.85c-3.26,3.32-2.85,7.6.94,11.41C59.82,81.06,62,81.7,61.43,84c-4,3.33-6.92-.12-10.46-2.13-.67,3.73,2.91,5.85,2.41,8.93-.37,1.77-1.12,3.45-3.12,3.76-2.3.35-1.29-2.63-2.94-3.11A2.14,2.14,0,0,0,47,90.7c-.68-2.2-6.18-1.38-3.77-5.53,3.2-2.88,3.67-5.88.46-9.06a3.69,3.69,0,0,1-.82-4l4-5.78c1.3-4.15,4.25-6.82,8.26-8.54Q66.24,45.7,77.27,33.63C78.12,32.74,78.33,31.07,80.19,31.41Z"/><path class="cls-22" d="M15,92.75c3.42,0,6.85-.2,10.25,0,4.54.34,8.21.07,7.16-6.36,3.25,3.22,6.64,5.58,11,6.24a2.4,2.4,0,0,1,1.41,1.8c.2,4.29,3.57,6.61,6.15,9.35-.57,1.29-1.71,1-2.61.94-3.11-.31-4,1-4,3.9.06,4.22.87,8.49-.68,13C38.29,108.13,28.78,98.6,14.05,94Z"/><path class="cls-23" d="M98.54,116.94c-5.6,5.73-13.23,7.33-20.69,8.77a56,56,0,0,1-24.8-.71c-2.1-.54-4.66-.84-4.77-4s.17-5.06,4.54-4a47.73,47.73,0,0,0,20.84,0c1.65-.35,3.33-.72,4.91.06,6.14,3,11.9,2.12,17.43-1.45C97.36,115.15,98.57,115,98.54,116.94Z"/><path class="cls-23" d="M22.1,34.67c14.39-18,44.17-26.12,63.53-16.77-2,3-4.8,1.26-7.14.94-3.56-.49-7.14-2.25-10,1.6-.33.46-1.58.5-2.37.42-17.08-1.66-30.55,6-43.3,15.47C21.32,36.32,21.25,35.69,22.1,34.67Z"/><path class="cls-24" d="M98.54,116.94A3.67,3.67,0,0,0,96,115.59c.6-2.27,2.36-4.39,1.09-6.91a2.23,2.23,0,0,0-2.34-1.46c-1.34.2-.74,1.19-.64,1.88.56,4-2.25,5.48-5.5,6.17-3.08.65-6.24.26-7.75-2.89-1.64-3.44-.7-6.76,2.14-9.19,2-1.72,4.31-3.52,7.34-.75a9.93,9.93,0,0,0,7.52,2.1c4.53-.53,4.61,1.86,4.35,4.84S101.26,115.09,98.54,116.94Z"/><path class="cls-25" d="M15.11,126.6c-2.6-.39-6,1.12-5.61-3.06.31-3.09-2.44-7.76,4.62-7.61,4.18.09,5.66-4.61,8.79-6.62,2.37-1.53,3.81-6.71,7.74-2.7,3.54,3.61-1.34,5-3,7.14-2.87,3.7-8,5.76-7.8,11.7C19.92,127.57,16.4,125.74,15.11,126.6Z"/><path class="cls-24" d="M10.7,78.36A28.42,28.42,0,0,1,12.93,67.5a6.27,6.27,0,0,1,6.19-4.08c1.94,0,3.87.65,4.58,2.41,1,2.47,1,5-1.11,7.2a25.85,25.85,0,0,0-7.14,13c-.2,1,0,2.59-1.69,2.48-1.41-.1-1.63-1.48-1.83-2.56C11.47,83.43,11.1,80.89,10.7,78.36Z"/><path class="cls-19" d="M52.26,90.91c-.08-2.12-2-3.21-2.89-4.89-1-2-2.44-4.18.28-5.87,2.45-1.52,3.9-.94,5.06,2s4.31,1.45,6.67,1.64c2.14-2,4.31-2,6.52-.1,4,1.38,3.77,4.09,2.42,7.14a8.66,8.66,0,0,1-4.89,3.9c-.64.2-1.57.5-1.9.12C60.54,91.4,56.46,91,52.26,90.91Z"/><path class="cls-26" d="M122.58,46.26a4.75,4.75,0,0,0-1.07-3c-4.38-4.73-4.55-7.4-.72-12.7,1.09-1.51,1.6-2.76.5-4.3a25.2,25.2,0,0,0-6.84-6.93,5,5,0,0,0-5.57-.12c-7.62,4-9.11,3.75-14.59-2.06l4.06-1.88c2.88,2.55,6.12,1.4,9.31.86,3,.86,5.89-.78,8.88-.72,3.53,1.89,6,4.86,8.82,7.56.93,2.9-3.52,5.91.19,8.75-1.84,3.09-2.58,6.08.9,8.66Z"/><path class="cls-27" d="M123.41,55.91c.34,1.61-.21,3.42,1.09,4.84a75.31,75.31,0,0,1,0,19.21c-1.84,3.71-.35,8.39-4.15,12.13-1.76-8.47-4-16.47,1.61-24.2.58-.8.34-2.15.48-3.25C122.26,61.68,120.7,58.58,123.41,55.91Z"/><path class="cls-28" d="M107.66,16.09c-4.45,4.49-7.74,4.19-9.31-.86L102.6,6C105,9.37,107.72,12,107.66,16.09Z"/><path class="cls-29" d="M39,84.91c-2.45-2.91-5.45-5.42-7.38-9.64l8.4.81c2.35-1.11,4,0,4.92,1.87,1.24,2.65,1.21,5.32-1.56,7.32A3.57,3.57,0,0,1,39,84.91Z"/><path class="cls-30" d="M126.45,40.34c-2.06.13-4.42.79-4.87-2.25s.35-5.58,4-6.41c3,1.48,6.28,2.64,9.12,5.47Z"/><path class="cls-31" d="M62.15,100.31l.81,4.62c-4.54-.91-6.6-4.62-9.94-6.41-1.58-2.11-1.66-4.18.41-6a5.18,5.18,0,0,1,5.57-.9,4.25,4.25,0,0,1,2.82,5.41A4.33,4.33,0,0,0,62.15,100.31Z"/><path class="cls-32" d="M62.15,100.31a8.6,8.6,0,0,1-.7-2.27c0-2.88-.86-5.29-4.35-5.29-4,0-4.26,2.83-4.08,5.77-6.13.8-4.43-4.24-5.7-7.06,1.88,1.76,3.71,3.05,4.94-.55,5.92-3.63,9.32.8,13.17,3.81C62.73,95.71,62.08,97.81,62.15,100.31Z"/><path class="cls-33" d="M125.36,22.93c-4.94-.36-6.7-4.15-8.82-7.56a3.86,3.86,0,0,1,.49-.1C126.24,14.63,126.12,12.56,125.36,22.93Z"/><path class="cls-34" d="M117.28,55c.37,3,1.74,6,.83,9.47l-6.65-1.89c-1.07-.66-3.47-.9-1.82-2.75C111.63,57.58,113.3,54.49,117.28,55Z"/><path class="cls-34" d="M76.33,29.75c-.44-2.57-3.3-5.69-1.43-7.41s5.62-.16,8.47.58A6.4,6.4,0,0,1,76.33,29.75Z"/><path class="cls-35" d="M116,77.91c-3.73-1.53-5.44-6.74-3.25-9.56a2,2,0,0,1,2.22-.64,2,2,0,0,1,1.57,2.16C116.54,72.55,117,75.26,116,77.91Z"/><path class="cls-36" d="M43,84.7c2.41-5.16,1.89-6.69-2.92-8.62l2.85-4c.86,3.12,5.17,4.39,4.51,8.53-.38,2.4-.71,4.3-3.21,5.28A1.37,1.37,0,0,1,43,84.7Z"/><path class="cls-37" d="M76.33,29.75c3.71-1,5.67-3.63,7-6.83h3.91c-2,3.11-5.43,5.11-7.09,8.48l-2.92,2.22C77,32.34,76.64,31,76.33,29.75Z"/><path class="cls-38" d="M117.28,55c-2.07,1.56-4.11,3.14-6.21,4.66-1.71,1.24-.59,2.06.39,2.92-1.93.48-3.42-.8-5.14-1.17a54.84,54.84,0,0,1,11-9.49C117.33,53,117.3,54,117.28,55Z"/><path class="cls-39" d="M55.18,57.76a46.36,46.36,0,0,1-8.26,8.54c-.25-1.56-1.33-3-.73-4.68.52-.5,1.74-.54,1.53-1.45-.14-.64-1.09-.29-1.69-.33-1.25-2.08-.45-3,1.85-2.88S52.75,57.49,55.18,57.76Z"/><path class="cls-40" d="M43,84.7l1.23,1.19c-1,1.34-.55,2.3,1,2.66,1.28.3,2,.86,1.84,2.15-1.05-.35-2.12-1.06-3.14-1-3.77.28-5-1.6-4.86-4.81Z"/><path class="cls-41" d="M46,59.84c1.08-3.07,3.45-1.25,5.41-1.28-1.6,1.32-.92,6.08-5.25,3.06Z"/><path class="cls-42" d="M124.51,80q0-9.6,0-19.21A42,42,0,0,1,124.51,80Z"/><path class="cls-43" d="M38,118.41c-3.16-.77-5-1.54-5.36-4,0-.34.93-1.23,1.29-1.16C36.53,113.79,36.16,116.27,38,118.41Z"/><path class="cls-44" d="M19,99.65c2.26,1.4,4.57,1.49,4.79,3.82,0,.35-.91,1.14-1.35,1.11C19.85,104.41,19.73,102.36,19,99.65Z"/><path class="cls-45" d="M22.1,34.67l.76,1.66c-.89,2.41-3.29,3.46-5,5.16C18,38.44,20.14,36.62,22.1,34.67Z"/><path class="cls-42" d="M123.41,55.91c-1.79,2.76-.45,5.84-1,8.73-1.66-3.76-.88-7.64-.84-11.73C123.57,53.44,123.43,54.7,123.41,55.91Z"/><path class="cls-46" d="M110.43,42.55c0,6.94-6.08,12.41-13.65,12.32-7-.08-13.33-6-13.18-12.47A13.1,13.1,0,0,1,97,29.56C104.79,29.53,110.46,35,110.43,42.55Z"/><path class="cls-47" d="M67.9,83.68l-6.52.1c-3.11-2.28-6.92-4-7.25-8.5-.37-5.32,2.47-9.75,7.31-11.17,4-1.16,9.63,1.1,11.6,4.61,2.72,4.84,1.71,9.82-2.72,13.31C69.56,82.64,68.71,83.13,67.9,83.68Z"/><path class="cls-19" d="M52.72,69.77C51.8,71.14,51.28,73.08,49,73c-1.78-.07-1.91-1.48-1.77-2.78.18-1.9,1.37-2.8,3.32-2.62A2,2,0,0,1,52.72,69.77Z"/><path class="cls-47" d="M41.24,99.4c-.46,1.92-1.41,3.46-3.62,3.26-2-.17-3.49-1.3-3.37-3.44A3.33,3.33,0,0,1,37.84,96C40,96,40.93,97.52,41.24,99.4Z"/><path class="cls-48" d="M97.28,33.44c6.11,0,10,3,10,7.67,0,6.16-4.61,10.57-11.06,10.48-4.45-.06-8.9-4.73-9-9.38C87.25,36.64,90.91,33.43,97.28,33.44Z"/><path class="cls-49" d="M64.65,67.26c4.46.19,6.91,2.59,6.72,6.59-.2,4.23-3,6.49-7.64,6.24-4.27-.24-6.57-2.7-6.45-6.92C57.4,69.25,60.13,67.06,64.65,67.26Z"/><polygon class="cls-2" points="140 272 1 272 1 204.5 1 137 70.5 137 140 137 140 272"/><line class="cls-3" x1="140" y1="137" x2="1" y2="272"/><line class="cls-4" x1="70.5" y1="137" x2="1" y2="204.5"/><line class="cls-5" x1="140" y1="204.5" x2="70.5" y2="272"/><rect class="cls-6" x="1" y="137" width="139" height="135"/><path class="cls-50" d="M69.16,241c-1.46-6.19-3.6-12-8.79-16.27-.64-.6-1.4-1.37-1.08-2.17,1.58-4,4.4-7.52,4.35-12.3,0-1.72,2.59-1.77,4.15-.37a4.4,4.4,0,0,1,1.27,3.22c.08,1.28-.38,3.33,1.47,3.23,2.68-.15,1.32-2.51,1.46-4,.65-8.26,4.49-14.78,11.22-19.73,1.62-1.19,3.41-2.23,4.41-4.09a3.9,3.9,0,0,1,2.87-2.34l4.92-8.46V187c-.58,2.8-.49,2.9,2,2.09,3.74-4.8,4.39-10.46,3.28-16s.21-10.28,3-14.83c2.61-4.2,4.67-8.8,9.06-12.44a82.24,82.24,0,0,1,.3,29.08c-1.65,6.74-2.24,13.9-7.78,19.11-2.79,4.23-7,6.83-11.4,9a25.71,25.71,0,0,0-11.39,10.43,2,2,0,0,0,0,2.69c4.36,5.47,4.21,6.3-1.5,10.68-4.34,3.7-5.82,8.65-6.34,14C72.91,242.17,71.15,245.08,69.16,241Z"/><path class="cls-21" d="M73.69,212.32a12.52,12.52,0,0,1,.09,2c-.18,1.87.73,4.84-2.25,4.71a4.29,4.29,0,0,1-4.24-4.8,8.87,8.87,0,0,0-.13-3,1.9,1.9,0,0,0-1.47-1.09c-.48,0-1.42,1-1.35,1.14,2.69,5.13-2,7.79-3.85,11.39a5.24,5.24,0,0,0-.12,2c-2.6-1.17-5.38-1-8.11-.93-7.2.28-9.36,3.87-6.1,9.9,1.34,2.49,3.5,4.73,2.55,8.21a41.32,41.32,0,0,0-17.52-12.45c-8.49-3.36-12.71-11.26-15.59-19.6-1.49-3.46-1.49-3.46,1.15-3.34,3.35,3.77,6.45,7.78,11,10.32,2.52,1.38,5.15,2.24,7.73.86S38.31,213.57,38,211c-.39-3.86-1.07-7.69-1.62-11.53-2.22-4.32-2.15-4.65,1.19-5.28,2.51,1.29,3.36,3.74,4.14,6.11,2.75,8.3,9.26,11.42,17.49,12.74,0-3.27-3.94-5.16-2.41-8.52,3.25-1.47,6.87-.69,10.21-1.63,3.67,1.6,4.36,5,4.34,8.24C71.37,214,72.81,212.21,73.69,212.32Z"/><path class="cls-51" d="M10.37,213.27c3.23,2.64,4.73,6.22,6.65,9.51,3.28,5.63,7.73,10.14,14.13,11.89s11.05,5.35,13.94,11a43.2,43.2,0,0,0,15.75,16.91c1,.66,3,1.05,2.25,2.86-.68,1.61-2.49,1.11-3.67.81-21.34-5.4-39.11-15.06-46.88-37.19C10.71,223.87,10.43,218.69,10.37,213.27Z"/><path class="cls-50" d="M66.64,203.26c-2.68,4.42-6.31,2.22-9.75,1.35-6.77,1.06-10.85-3.76-15.62-7a13.76,13.76,0,0,1-2.94-3.48c-5.42-4.92-6.42-11.68-7.9-18.25-.57-5.7-2.08-11.33-1.72-17.1.25-4.18,1-8.33,1.68-14,6.12,9.28,14,16.08,12.37,27.52-.81,5.8-.69,11.78,3.05,17,.81.82,1.3,2.3,2.67,2.12,1.89-.27.9-1.88,1-2.9.11-1.78-.15-3.76,2.73-2.41,1.72.28,1.19,2.76,3,3a8.34,8.34,0,0,1,3.52,2.47c2.18,1.8,4.28,3.67,6.43,5.49C67.1,198.68,68.75,200.56,66.64,203.26Z"/><path class="cls-48" d="M128.69,207.33c-3.38,8.14-6.34,16.65-14.8,21.29-4.57,2.51-9.83,3.62-13.9,7.26a51.78,51.78,0,0,0-5.78,5.8c-.3-3.65,1.34-6,2.57-8.2,3.21-5.68,1.69-9.1-4.82-9.65-1.88-.16-3.78-.08-5.66-.1-.57-3.17-3.41-5.93-1.78-9.49a6.71,6.71,0,0,1,3.08-1.78,21.67,21.67,0,0,0,15.07-14.16c.53-.88,1.14-1.7,1.75-2.52.86-1.16,1.52-3.23,3.35-2.41s.69,2.64.37,4.06c-1.19,4.36-2.75,8.64-3,13.2-.17,2.75,0,5.69,2.67,7.06s5.59.47,8.22-1.08c4.8-2.83,8.17-7,11.49-11.28C129.29,205.17,129.51,206,128.69,207.33Z"/><path class="cls-52" d="M9.49,184.15c-1.91-.39-4.16.88-5.08-.68-1-1.72,1.18-2.91,2.13-4.22a74.34,74.34,0,0,1,13.37-13.92c2.61-2.1,3.86-2,4.16,1.48a159.48,159.48,0,0,0,5.22,27.76,95.28,95.28,0,0,1,2.79,12.29c.27,2,0,4.36-1.85,5.39s-2.92-1.31-4.18-2.27c-5-3.79-8.19-9.09-11.73-14.06a6.38,6.38,0,0,1-.71-6.75C16.05,184.22,13.94,183.05,9.49,184.15Z"/><path class="cls-53" d="M47.91,151.32l-12.2-7.69c10.32-2,19.74-2.91,29.31-1.18,2.88.52,3.49,1.88,2.88,4.66-1.35,6.25-2.32,12.58-3.47,18.87-.52,2.84-1.41,4.32-4.75,2.28-3.17-1.93-6.79-3.15-10.22-4.67s-4.49-5.14-5.87-8C42.38,153,46.28,153.36,47.91,151.32Z"/><path class="cls-25" d="M80,183c-.55-6.05,3.5-8.75,8.32-10.68,1.56-.63,4.21-1.63,2.51,2.24-1,2.25-1,4.9-1.51,7.37-1.14,1.95-.3,4.45-1.81,6.3a21.75,21.75,0,0,1-4.18,4.45c-3.35,2.39-6.22,5.13-7.74,9.12-.61,1.61-1.77,3.5-4.1,3.33s-3.22-1.92-3.66-3.77c-.92-3.89-4.48-5.39-7-7.86-1.83-1.54-3.7-3.05-4.67-5.32-1.22-4.23-3.33-8.17-3.87-12.66s1.21-4.1,4.25-2.69c4.78,2.22,7.69,5.52,7.15,11A15.55,15.55,0,0,1,68,187.88c2.95,3.55,4.39,3.64,7.21.21C76.73,186.28,78.61,184.87,80,183Z"/><path class="cls-54" d="M71.74,246.25c3.73-5.32,10.93-.81,14.91-5.5,1.37,2.81-.24,4.48-1.5,6.2-3.32,4.51-6.12,9.22-7.31,14.81-.59,2.82-2.24,5.54-5.65,5.7s-5.1-2.42-5.91-5.32a40.12,40.12,0,0,0-8.18-16c-1.13-1.29-2.06-3.29-.73-4.59s2.2.87,3.26,1.51c2,1.18,3.54.72,4.9-.95C69.35,241,69.89,244.56,71.74,246.25Z"/><path class="cls-51" d="M118.67,160.53c7,7.92,11.88,15.72,13.6,24.83.88,4.71-2.91,8.74-5.46,12.68a1.51,1.51,0,0,1-2.6.09c-3.58-5.13-10-8.82-7.21-16.93C119.15,175,118.16,168.28,118.67,160.53Z"/><path class="cls-51" d="M78.13,145.14a39.12,39.12,0,0,1,20.49,10.69c2.43,2.46-.89,6-3.67,7.72-3.43,2.15-7.2,3.76-10.81,5.65-1.93,1-2.79.27-3.25-1.62-1.65-6.67-3.49-13.3-4.24-20.15C76.51,146.22,76.2,145,78.13,145.14Z"/><path class="cls-55" d="M72.66,157.68l3.45,20.08a45.37,45.37,0,0,1,.9,5.44,6.51,6.51,0,0,1-3,6.5,3.68,3.68,0,0,1-4.74-.11c-2.28-1.85-4.43-3.82-3.29-7.23.15-.47.31-1,.5-1.41l3.18-17.21c1-1.36.36-2.92.52-4.38S70.66,156.59,72.66,157.68Z"/><path class="cls-56" d="M136.66,203A68.17,68.17,0,0,1,131.5,235C133,224.69,128.71,213.76,136.66,203Z"/><path class="cls-57" d="M66.5,181c.07.66.19,1.33.21,2,.1,3.25,1.74,6.08,4.89,6.05,3.84,0,4.43-3.52,4.47-6.72,0-1.51,0-3,0-4.51,1.29,1.47,1.57,3.29,2,5.12.34,1.5,1.2.42,1.85.09-.58,3.77-3.42,6.05-6,8.43a3.21,3.21,0,0,1-4.65-.08c-2.27-2.2-5-4.08-5.65-7.5C65.44,183.65,65.3,181.66,66.5,181Z"/><path class="cls-58" d="M30.43,175.89c2.36,6.16,5,12.15,9.17,17.41-.65.71-.88,1.84-2.07,2-4.85.25.32,3.07-1.11,4.19-3.4-3.14-3.09-7.78-4.56-11.65C30.47,184.19,30.83,179.9,30.43,175.89Z"/><path class="cls-59" d="M108.14,197.43l-.41-3.32c-2.2,1.33-2,3.94-3.74,5.32-2.86-2,.61-4.09-.09-6.13,5-5.19,6.91-11.91,9.23-18.41C112.52,182.63,111.78,190.34,108.14,197.43Z"/><path class="cls-60" d="M101,153.72c-.76-4-3.65-6.39-5.27-10,4,.05,7,1.73,8.6,4.49C105.39,150,103.41,152.2,101,153.72Z"/><path class="cls-61" d="M52.17,186.08c-2,.4-2.27,1.67-1.89,3.37.3,1.33,1.73,3.11-.21,3.87-1.41.55-2.56-1.22-3.59-2.24-.42-.41-.46-1.19-.67-1.81.86.49,1.9,1.54,2.54,1.34,1.26-.38.6-1.79.32-2.6a16.13,16.13,0,0,1-.38-10.28C48.57,181,51.3,183.12,52.17,186.08Z"/><path class="cls-62" d="M85.29,214.75c-.21,3.05,2,5.84,1,9-2,.53-2.87,3.08-5.25,3.07,2.37-3.41,6.17-6.7-.64-9.81-2.28-1-1.12-3.13.65-4.42C82.69,212.89,84.4,213.06,85.29,214.75Z"/><path class="cls-63" d="M16.75,206.52c-2.38.45-.47,2.32-1.15,3.34-3.18-2.92-2.57-7.39-4.65-10.8C14.15,200.65,15.16,203.8,16.75,206.52Z"/><path class="cls-46" d="M56.13,188.15c2.79.09,3.72,2.46,5.23,4.11-1.4,3.32-2.79.15-4.18,0-1.29-.7-2.18-1.64-2-3.22C55.15,188.39,55.47,188.09,56.13,188.15Z"/><path class="cls-64" d="M72.66,157.68c-3.25.95-.69,4.66-3,6.06.09-3.27-.09-6.59,1.41-9.76C73.47,154.71,72.78,156.3,72.66,157.68Z"/><path class="cls-65" d="M97.44,189.05c-.89,1.24-1.88,3.62-3.4,2.4s-.28-3.29,1.37-4.49C95.68,188,96,189.06,97.44,189.05Z"/><path class="cls-66" d="M128.69,207.33l-1.21-2c-.07-2,2-2.4,2.79-3.79C131,203.88,130.87,205.87,128.69,207.33Z"/><path class="cls-67" d="M86.37,187.24c-.69,3.08.93,2.66,2.84,1.79a8.21,8.21,0,0,1-3.73,4C78,197.42,74.84,204.25,73.7,212.32l-1.76,4c-3.57-4-1.68-9.63-5.3-13-.51-5.86-6.32-7.32-9.46-11,1.39-.12,2.79,1.42,4.18,0a17.61,17.61,0,0,1,8.32,9.79c.82,2.17,2.28,3.52,3.59.4C76,196,81.83,192.15,86.37,187.24Z"/><polygon class="cls-2" points="280 272 141 272 141 204.5 141 137 210.5 137 280 137 280 272"/><line class="cls-3" x1="280" y1="137" x2="141" y2="272"/><line class="cls-4" x1="210.5" y1="137" x2="141" y2="204.5"/><line class="cls-5" x1="280" y1="204.5" x2="210.5" y2="272"/><rect class="cls-6" x="141" y="137" width="139" height="135"/><path class="cls-68" d="M207.56,164.06c-4.26,4-4.49,6.46-1,10.27,3.7,3.48-1.07,2.92-2.06,4.17-16.43,6.42-28.93,16.41-32.3,34.65-1.39,2.23-.65,5-1.88,7.26-2.94,5.59-9.2,8.4-12.06,14.14-.93,1.88-2.37.84-2.84-.73-2.71-9.12-6.44-18-4.57-28,1.07-5.79,1.5-11.69,3.83-17.2a3.49,3.49,0,0,0,0-5.08H144.33c10.22-15.34,22.86-25.72,40.37-29.78.49-1.46,5.94-.28,2.19-4l-7.39-5c-.33-2.06,1.26-2,2.53-2.1,1.66-.13,3.34-.05,4.85-.94a88.87,88.87,0,0,1,37,4.83c4.75,1.65,8.75,4.49,12.8,7.29,1.12.79,2.47,1.54,3.49.3a2.75,2.75,0,0,0-.53-4.23c-1-1.5-2.93-3.17-1.22-4.79,1.55-1.48,3.08.69,4.48,1.44,6.57,3.54,7.07,6.31,2.21,11.64-2.3,2.52-4.79,4.87-7,7.43-4.71,5.36-7.19,5.41-11.88.1a20.55,20.55,0,0,0-1.9-1.7c-2.06-2,0-5.13-2.19-7.05-3.62-1.8-6.73-1-9.41,1.84A10.28,10.28,0,0,0,207.56,164.06Z"/><path class="cls-19" d="M267.85,156.59a39.64,39.64,0,0,0,0,4.08c.25,2.49-.43,4.05-3.32,3.44-3.89-.83-6.48,1.14-8.94,3.67-3.78,3.89-7.7,7.66-11.49,11.54-4.23,4.33-4.37,7.21,0,11.09,3.12,2.79,4.94,7.51,10.52,7.12,1.21-.09,1.2,2.17.52,2.94a52.47,52.47,0,0,1-6.91,6.75c-1.61,1.27-3.51,1-3.27-1.71.45-4.81-4.27-6-6.33-9.09-1-1.43-2.45-.24-3.47.77q-24.69,24.56-49.37,49.1c-6.25,6.24-13.42,10.77-22.39,11.92-2.7.35-5.47,3.37-7.75,1.44-2.58-2.18.74-4.91,1.16-7.43,1.47-8.77,5.68-16,12.36-22.29,16.92-16,33.33-32.54,49.95-48.85,1.66-1.63,1.82-3.2-.07-4.71-2.67-2.12-4.24-5.5-8.76-5.34-2.77.1-1.92-2.57-.73-4a59.75,59.75,0,0,1,4.44-4.09c1.31-1.28,2.5-3.19,4.53-2.54,1.76.57.78,2.76,1.33,4a20.26,20.26,0,0,0,10.32,10.66c3.8,1.67,6.5-2.19,9.12-4.47s5.12-5.26,7.8-7.77c3.26-3,6.38-6,5.15-11.11-.62-2.57.91-3.15,3.24-3a78.46,78.46,0,0,0,8.81,0c2.56-.16,3.94.44,3.57,3.3A33.6,33.6,0,0,0,267.85,156.59Z"/><path class="cls-69" d="M244.76,215.13a55.62,55.62,0,0,1,13.4,7.45c7.18,5.22,6.93,5.07,5.06,13.68-1,4.64-1.71,9.29-3.41,13.77-2.54,6.72-8.28,9.85-14.19,12.85a3.28,3.28,0,0,1-3-.06c-7.21-3.51-13.14-8-15.39-16.29-1.48-5.47-1.09-11.44-4.47-16.42-.56-.83-.15-1.61.56-2.19,6-4.91,12.22-9.51,19.45-12.56A8.21,8.21,0,0,1,244.76,215.13Z"/><path class="cls-51" d="M270,212.07c-2.19-12.37-10.38-20.67-20-27.76-2.44-1.79-2.52-2.58-.6-4.32,3.79-3.42,7.53-6.9,11.44-10.2,2.09-1.77,4-1.54,5.35,1.18,7.44,15.1,13,30.48,9.39,47.76-.81,3.94-1.27,8-2.59,11.8-2.37-.33-1.67-1.75-1.14-3.11l0-8C270.31,217.15,271.49,214.28,270,212.07Z"/><path class="cls-70" d="M199.1,265.53c-6.5-.36-12-3.79-18.06-5.63-.69-.21-1.67-1.16-1.63-1.71.22-3.7,4-4.61,6-7,1.41-1.77,2.74-.31,3.86.73,4.83,4.48,9.17,9.57,15.49,12.24C203.58,267.39,201.26,266.18,199.1,265.53Z"/><path class="cls-71" d="M201.12,190.68c-8.15,10.13-17.63,17-25.88,26.27C176.46,206.57,187.51,194.07,201.12,190.68Z"/><path class="cls-72" d="M199.1,265.53c1.87-.46,4.08.33,5.63-1.41l6.36,1.56-.17,1.24C207,267.1,202.91,268.79,199.1,265.53Z"/><path class="cls-73" d="M271.82,227.42c.27,1.08,0,2.34,1.14,3.11-.54,2.17-1.07,4.33-1.61,6.5C269.81,233.56,268.69,230.27,271.82,227.42Z"/><path class="cls-74" d="M239.62,150c3.43,1.06,2.88,4.33,1.73,5.7-1.75,2.07-3.45-.18-4.69-1.77C239.74,154.12,239.87,152.18,239.62,150Z"/><path class="cls-75" d="M186.88,141.78c-1.6,3.06-5.39.91-7.38,3-.7-.47-4.13.41-1.13-1.89C180.84,141,184,141.58,186.88,141.78Z"/><path class="cls-76" d="M204.53,178.5c.84-1.32,3.42-1.8,2.06-4.17,1.66.36,4.83-.47,4.23,2.1S206.91,178.48,204.53,178.5Z"/><path class="cls-74" d="M207.56,164.06c-.43-3.77,1.2-5.57,5.11-5.18C211.23,160.86,210.23,163.26,207.56,164.06Z"/><path class="cls-77" d="M222.08,157c3.81,1.42,1.46,4.7,2.19,7.05C221.19,162.45,222.44,159.5,222.08,157Z"/><path class="cls-78" d="M270,212.07c2.69,1.93,1.94,4.69,1.82,7.3C269.12,217.44,269.91,214.67,270,212.07Z"/><path class="cls-79" d="M186.89,149.79c1.6.32,2.41,1.24,1.72,2.78-.78,1.74-2.46,1.26-3.91,1.22C184.54,152,188.08,152.15,186.89,149.79Z"/><path class="cls-80" d="M170.35,220.41c0-2.58-.9-5.38,1.88-7.26A8.35,8.35,0,0,1,170.35,220.41Z"/><path class="cls-74" d="M154.68,183.57c3.53,1.67,2.94,3.37,0,5.08Z"/><path class="cls-53" d="M227.07,189.51c-1.84-1.68-17.7,10.08-30.06,21.86-13.68,13-28,30.78-25.87,32.67,2.29,2.06,24.31-14.68,41.34-33.83C217.68,204.37,228.82,191.1,227.07,189.51Z"/></g></g></g></svg>